<svg width="400" height="300" viewBox="0 0 400 300" xmlns="http://www.w3.org/2000/svg">
  <rect width="400" height="300" fill="#fff"/>
  
  <!-- Header -->
  <rect x="0" y="0" width="400" height="60" fill="#f8f9fa"/>
  <rect x="20" y="20" width="80" height="20" fill="#e91e63" rx="2"/>
  <rect x="320" y="20" width="60" height="20" fill="#333" rx="2"/>
  
  <!-- Product Grid -->
  <rect x="20" y="80" width="80" height="80" fill="#f5f5f5" rx="4"/>
  <rect x="110" y="80" width="80" height="80" fill="#f5f5f5" rx="4"/>
  <rect x="200" y="80" width="80" height="80" fill="#f5f5f5" rx="4"/>
  <rect x="290" y="80" width="80" height="80" fill="#f5f5f5" rx="4"/>
  
  <!-- Product Info -->
  <rect x="25" y="170" width="70" height="8" fill="#333" rx="1"/>
  <rect x="25" y="185" width="40" height="10" fill="#e91e63" rx="1"/>
  
  <rect x="115" y="170" width="70" height="8" fill="#333" rx="1"/>
  <rect x="115" y="185" width="40" height="10" fill="#e91e63" rx="1"/>
  
  <rect x="205" y="170" width="70" height="8" fill="#333" rx="1"/>
  <rect x="205" y="185" width="40" height="10" fill="#e91e63" rx="1"/>
  
  <rect x="295" y="170" width="70" height="8" fill="#333" rx="1"/>
  <rect x="295" y="185" width="40" height="10" fill="#e91e63" rx="1"/>
  
  <!-- Featured Banner -->
  <rect x="20" y="220" width="360" height="60" fill="#e91e63" rx="6"/>
  <rect x="40" y="240" width="150" height="12" fill="#fff" rx="2"/>
  <rect x="40" y="258" width="100" height="8" fill="#fff" opacity="0.8" rx="1"/>
  <rect x="300" y="235" width="60" height="20" fill="#fff" rx="3"/>
</svg>