<svg width="400" height="300" viewBox="0 0 400 300" xmlns="http://www.w3.org/2000/svg">
  <rect width="400" height="300" fill="#000"/>
  
  <!-- Header -->
  <rect x="0" y="0" width="400" height="60" fill="#ff4757"/>
  <rect x="20" y="20" width="100" height="20" fill="#fff" rx="2"/>
  <rect x="320" y="20" width="60" height="20" fill="#c44569" rx="2"/>
  
  <!-- Hero Section -->
  <rect x="0" y="60" width="400" height="100" fill="url(#fitnessGradient)"/>
  <rect x="40" y="90" width="180" height="18" fill="#fff" rx="2"/>
  <rect x="40" y="115" width="120" height="12" fill="#fff" opacity="0.9" rx="1"/>
  <rect x="40" y="135" width="100" height="20" fill="#fff" rx="3"/>
  
  <!-- Class Schedule Grid -->
  <rect x="40" y="180" width="80" height="60" fill="#2f3542" rx="4"/>
  <rect x="140" y="180" width="80" height="60" fill="#2f3542" rx="4"/>
  <rect x="240" y="180" width="80" height="60" fill="#2f3542" rx="4"/>
  
  <!-- Schedule Times -->
  <rect x="50" y="190" width="60" height="8" fill="#ff4757" rx="1"/>
  <rect x="50" y="205" width="40" height="6" fill="#a4b0be" rx="1"/>
  <rect x="50" y="220" width="50" height="6" fill="#a4b0be" rx="1"/>
  
  <rect x="150" y="190" width="60" height="8" fill="#ff4757" rx="1"/>
  <rect x="150" y="205" width="40" height="6" fill="#a4b0be" rx="1"/>
  <rect x="150" y="220" width="50" height="6" fill="#a4b0be" rx="1"/>
  
  <rect x="250" y="190" width="60" height="8" fill="#ff4757" rx="1"/>
  <rect x="250" y="205" width="40" height="6" fill="#a4b0be" rx="1"/>
  <rect x="250" y="220" width="50" height="6" fill="#a4b0be" rx="1"/>
  
  <defs>
    <linearGradient id="fitnessGradient" x1="0%" y1="0%" x2="100%" y2="100%">
      <stop offset="0%" style="stop-color:#ff4757;stop-opacity:1" />
      <stop offset="100%" style="stop-color:#c44569;stop-opacity:1" />
    </linearGradient>
  </defs>
</svg>