<svg width="400" height="300" viewBox="0 0 400 300" xmlns="http://www.w3.org/2000/svg">
  <rect width="400" height="300" fill="#f8f9fa"/>
  
  <!-- Header -->
  <rect x="0" y="0" width="400" height="70" fill="#2c5aa0"/>
  <rect x="20" y="25" width="120" height="20" fill="#fff" rx="2"/>
  <rect x="300" y="25" width="80" height="20" fill="#1a4480" rx="2"/>
  
  <!-- Hero Section -->
  <rect x="40" y="100" width="180" height="20" fill="#2c5aa0" rx="2"/>
  <rect x="40" y="130" width="250" height="12" fill="#666" rx="1"/>
  <rect x="40" y="150" width="200" height="12" fill="#666" rx="1"/>
  <rect x="40" y="180" width="120" height="25" fill="#2c5aa0" rx="4"/>
  
  <!-- Services Grid -->
  <rect x="280" y="100" width="100" height="80" fill="#e3f2fd" rx="6"/>
  <rect x="290" y="110" width="80" height="12" fill="#2c5aa0" rx="2"/>
  <rect x="290" y="130" width="60" height="8" fill="#666" rx="1"/>
  <rect x="290" y="145" width="70" height="8" fill="#666" rx="1"/>
  <rect x="290" y="160" width="50" height="8" fill="#666" rx="1"/>
  
  <!-- Bottom Section -->
  <rect x="40" y="230" width="100" height="50" fill="#fff" stroke="#e0e0e0" stroke-width="1" rx="4"/>
  <rect x="160" y="230" width="100" height="50" fill="#fff" stroke="#e0e0e0" stroke-width="1" rx="4"/>
  <rect x="280" y="230" width="100" height="50" fill="#fff" stroke="#e0e0e0" stroke-width="1" rx="4"/>
  
  <!-- Icons placeholder -->
  <circle cx="90" cy="245" r="8" fill="#2c5aa0"/>
  <circle cx="210" cy="245" r="8" fill="#2c5aa0"/>
  <circle cx="330" cy="245" r="8" fill="#2c5aa0"/>
</svg>