<svg width="400" height="300" viewBox="0 0 400 300" xmlns="http://www.w3.org/2000/svg">
  <rect width="400" height="300" fill="#f8f9fa"/>
  
  <!-- Header -->
  <rect x="0" y="0" width="400" height="70" fill="#2c3e50"/>
  <rect x="20" y="25" width="120" height="20" fill="#fff" rx="2"/>
  <rect x="320" y="25" width="60" height="20" fill="#34495e" rx="2"/>
  
  <!-- Hero Property -->
  <rect x="20" y="90" width="180" height="120" fill="#ecf0f1" rx="6"/>
  <rect x="30" y="100" width="160" height="80" fill="#bdc3c7" rx="4"/>
  <rect x="30" y="190" width="100" height="12" fill="#2c3e50" rx="2"/>
  
  <!-- Property Info -->
  <rect x="220" y="90" width="160" height="120" fill="#fff" stroke="#ddd" stroke-width="1" rx="6"/>
  <rect x="235" y="105" width="120" height="16" fill="#2c3e50" rx="2"/>
  <rect x="235" y="130" width="80" height="12" fill="#666" rx="1"/>
  <rect x="235" y="150" width="100" height="12" fill="#666" rx="1"/>
  <rect x="235" y="175" width="80" height="20" fill="#3498db" rx="3"/>
  
  <!-- Bottom Listings -->
  <rect x="20" y="230" width="100" height="50" fill="#fff" stroke="#ddd" stroke-width="1" rx="4"/>
  <rect x="140" y="230" width="100" height="50" fill="#fff" stroke="#ddd" stroke-width="1" rx="4"/>
  <rect x="260" y="230" width="100" height="50" fill="#fff" stroke="#ddd" stroke-width="1" rx="4"/>
</svg>